<?xml version="1.0" encoding="UTF-8"?>
<svg xmlns="http://www.w3.org/2000/svg" viewBox="0 0 80 100" width="64" height="64">
  <defs></defs>
  <g transform="translate(0, 0) scale(1, 1)">
    
    <g>
    <defs xmlns="http://www.w3.org/2000/svg">
        <linearGradient id="zombieSkin" x1="0%" y1="0%" x2="0%" y2="100%">
          <stop offset="0%" stop-color="#32FF00"/>
          <stop offset="100%" stop-color="#00D4FF"/>
        </linearGradient>
        <linearGradient id="shirtGrad" x1="0%" y1="0%" x2="0%" y2="100%">
          <stop offset="0%" stop-color="#9B5DE5"/>
          <stop offset="100%" stop-color="#FF0044"/>
        </linearGradient>
      </defs>
      
      <ellipse xmlns="http://www.w3.org/2000/svg" cx="40" cy="95" rx="28" ry="5" fill="#1A1A2E" opacity="0.3"/>
      
      <rect xmlns="http://www.w3.org/2000/svg" x="18" y="70" width="16" height="28" rx="4" fill="#2D2D44" stroke="#1A1A2E" stroke-width="3"/>
      <rect xmlns="http://www.w3.org/2000/svg" x="46" y="70" width="16" height="28" rx="4" fill="#2D2D44" stroke="#1A1A2E" stroke-width="3"/>
      
      <rect xmlns="http://www.w3.org/2000/svg" x="20" y="40" width="40" height="35" rx="8" fill="url(#shirtGrad)" stroke="#1A1A2E" stroke-width="3"/>
      
      <text xmlns="http://www.w3.org/2000/svg" x="40" y="58" text-anchor="middle" font-size="6" fill="#FFFFFF" font-weight="bold">I ❤ BRAINS</text>
      <path xmlns="http://www.w3.org/2000/svg" d="M 28 62 Q 32 66 36 62 Q 40 66 44 62 Q 48 66 52 62" stroke="#FFFFFF" stroke-width="1.5" fill="none"/>
      
      <ellipse xmlns="http://www.w3.org/2000/svg" cx="40" cy="28" rx="22" ry="24" fill="url(#zombieSkin)" stroke="#1A1A2E" stroke-width="3"/>
      
      <ellipse xmlns="http://www.w3.org/2000/svg" cx="30" cy="22" rx="7" ry="8" fill="#FFFFFF" stroke="#1A1A2E" stroke-width="2"/>
      <ellipse xmlns="http://www.w3.org/2000/svg" cx="50" cy="22" rx="7" ry="8" fill="#FFFFFF" stroke="#1A1A2E" stroke-width="2"/>
      
      <circle xmlns="http://www.w3.org/2000/svg" cx="32" cy="24" r="4" fill="#1A1A2E"/>
      <circle xmlns="http://www.w3.org/2000/svg" cx="52" cy="24" r="4" fill="#1A1A2E"/>
      <circle xmlns="http://www.w3.org/2000/svg" cx="33" cy="23" r="1.5" fill="#FFFFFF"/>
      <circle xmlns="http://www.w3.org/2000/svg" cx="53" cy="23" r="1.5" fill="#FFFFFF"/>
      
      <line xmlns="http://www.w3.org/2000/svg" x1="26" y1="18" x2="34" y2="16" stroke="#1A1A2E" stroke-width="2" stroke-linecap="round"/>
      <line xmlns="http://www.w3.org/2000/svg" x1="46" y1="16" x2="54" y2="18" stroke="#1A1A2E" stroke-width="2" stroke-linecap="round"/>
      
      <path xmlns="http://www.w3.org/2000/svg" d="M 30 40 Q 35 44 40 42 Q 45 44 50 40" stroke="#1A1A2E" stroke-width="2" fill="none"/>
      
      <rect xmlns="http://www.w3.org/2000/svg" x="24" y="36" width="8" height="4" rx="2" fill="#FFFFFF" stroke="#1A1A2E" stroke-width="1"/>
      <rect xmlns="http://www.w3.org/2000/svg" x="48" y="36" width="8" height="4" rx="2" fill="#FFFFFF" stroke="#1A1A2E" stroke-width="1"/>
      
      <circle xmlns="http://www.w3.org/2000/svg" cx="22" cy="30" r="4" fill="#FFB7C5" opacity="0.5"/>
      <circle xmlns="http://www.w3.org/2000/svg" cx="58" cy="30" r="4" fill="#FFB7C5" opacity="0.5"/>
      
      <circle xmlns="http://www.w3.org/2000/svg" cx="36" cy="18" r="2" fill="#32FF00" opacity="0.7"/>
      <circle xmlns="http://www.w3.org/2000/svg" cx="52" cy="28" r="1.5" fill="#FFE135" opacity="0.7"/>
  </g>
  
  </g>
</svg>