<svg xmlns="http://www.w3.org/2000/svg" style="display:none">
  <!--
    Candy Apocalypse Spritemap
    All symbols follow the "Candy Apocalypse" color theme:
      Primary:  #00D4FF (Sky Pop), #FFB7C5 (Cotton Cloud), #FFE135 (Solar Burst), #32FF00 (Toxic Lime)
      Accent:   #FF6B35 (Rage Orange), #9B5DE5 (Mystic Violet), #FF0044 (Cherry Bomb)
      Outline:  #1A1A2E (Deep Space) at 3-5px stroke
  -->

  <symbol id="pisga0" viewBox="0 0 256 256">
    <use href="#pistol" />
  </symbol>

  <symbol id="shtga0" viewBox="0 0 256 256">
    <use href="#shotgun" />
  </symbol>

  <symbol id="barrel" viewBox="0 0 50 70">
    <rect x="2" y="2" width="46" height="62" fill="#2d6f2d" rx="4" />
              
              <rect x="2" y="14" width="46" height="9" fill="#1d4f1d" />
              <rect x="2" y="48" width="46" height="9" fill="#1d4f1d" />
              
              <rect x="2" y="2" width="46" height="6" fill="#1a401a" rx="2" />
              
              <rect x="2" y="62" width="46" height="6" fill="#1a401a" rx="2" />
              
              <circle cx="25" cy="34" r="10" fill="#ffff00" />
              <circle cx="25" cy="34" r="4" fill="#2d6f2d" />
              
              <circle cx="5" cy="12" r="2" fill="#3a8a3a" />
              <circle cx="45" cy="12" r="2" fill="#3a8a3a" />
  </symbol>

  <symbol id="door" viewBox="0 0 100 100">
    <rect width="100" height="100" fill="#3a2f2a" />
              <rect x="10" y="10" width="80" height="90" fill="#5a4f4a" stroke="#222" stroke-width="3" />
              <path d="M 50 10 L 50 100" stroke="#222" stroke-width="2" />
              <rect x="25" y="40" width="10" height="20" fill="#8a7f7a" rx="2" />
              <rect x="65" y="40" width="10" height="20" fill="#8a7f7a" rx="2" />
  </symbol>

  <symbol id="imp" viewBox="0 0 80 100">
    <rect x="22" y="78" width="12" height="22" fill="#4a2a10" rx="3"/>
              <rect x="46" y="78" width="12" height="22" fill="#4a2a10" rx="3"/>
              
              <ellipse cx="28" cy="100" rx="10" ry="4" fill="#3a1a08"/>
              <ellipse cx="52" cy="100" rx="10" ry="4" fill="#3a1a08"/>
              
              <path d="M 15 78 Q 10 50 20 30 Q 30 10 40 8 Q 50 10 60 30 Q 70 50 65 78 Z" fill="#6b3a20"/>
              
              <path d="M 15 60 L 2 70 L 8 50 Z" fill="#7a4a28"/>
              <path d="M 65 60 L 78 70 L 72 50 Z" fill="#7a4a28"/>
              
              <ellipse cx="40" cy="22" rx="22" ry="20" fill="#6b3a20"/>
              
              <path d="M 22 14 L 12 0 L 28 10 Z" fill="#888"/>
              <path d="M 58 14 L 68 0 L 52 10 Z" fill="#888"/>
              
              <circle cx="30" cy="20" r="5" fill="#ff2200"/>
              <circle cx="50" cy="20" r="5" fill="#ff2200"/>
              <circle cx="30" cy="20" r="2" fill="#ffaa00"/>
              <circle cx="50" cy="20" r="2" fill="#ffaa00"/>
              
              <path d="M 28 34 Q 40 44 52 34" stroke="#fff" stroke-width="2" fill="none"/>
  </symbol>

  <symbol id="pistol" viewBox="0 0 256 256">
    <g transform="translate(128, 240)">
        <path d="M -40 0 L 40 0 L 30 -60 L -30 -60 Z" fill="#00D4FF" stroke="#1A1A2E" stroke-width="4"/>
        
        <path d="M -30 -60 L 30 -60 L 20 -100 L -20 -100 Z" fill="#00D4FF" stroke="#1A1A2E" stroke-width="4"/>
        
        <path d="M -25 -100 L 25 -100 L 15 -140 L -15 -140 Z" fill="#FFB7C5" stroke="#1A1A2E" stroke-width="4"/>
        
        <rect x="-20" y="-140" width="40" height="10" fill="#1A1A2E"/>
        
        <ellipse cx="0" cy="-145" rx="12" ry="4" fill="#1A1A2E"/>
        
        <path d="M -35 0 L -20 -20 L -20 0 Z" fill="#00D4FF" stroke="#1A1A2E" stroke-width="3"/>
        
        <circle cx="25" cy="-50" r="8" fill="#FF0044" stroke="#1A1A2E" stroke-width="3"/>
        
        <path d="M -15 -40 L 15 -40 L 10 -50 L -10 -50 Z" fill="#FFE135" stroke="#1A1A2E" stroke-width="2"/>
        
        <text x="0" y="-80" text-anchor="middle" font-size="16" font-weight="bold" fill="#1A1A2E" font-family="Arial Black">PEW!</text>
      </g>
  </symbol>

  <symbol id="shotgun" viewBox="0 0 256 256">
    <g transform="translate(128, 240)">
        <path d="M -50 0 L 50 0 L 35 -40 L -35 -40 Z" fill="#8B4513" stroke="#1A1A2E" stroke-width="4"/>
        
        <path d="M -35 -40 L -15 -40 L -10 -120 L -25 -120 Z" fill="#1A1A2E"/>
        <path d="M 15 -40 L 35 -40 L 25 -120 L 10 -120 Z" fill="#1A1A2E"/>
        
        <ellipse cx="-18" cy="-120" rx="6" ry="3" fill="#1A1A2E"/>
        <ellipse cx="18" cy="-120" rx="6" ry="3" fill="#1A1A2E"/>
        
        <path d="M -10 -120 L 10 -120 L 5 -160 L -5 -160 Z" fill="#4a4a4a" stroke="#1A1A2E" stroke-width="3"/>
        
        <path d="M -55 0 L -35 0 L -35 -20 L -50 -20 Z" fill="#FF6B35" stroke="#1A1A2E" stroke-width="3"/>
        
        <circle cx="0" cy="-20" r="6" fill="#FFE135" stroke="#1A1A2E" stroke-width="2"/>
        
        <text x="0" y="-70" text-anchor="middle" font-size="12" font-weight="bold" fill="#FF6B35" font-family="Arial Black">CLICK!</text>
      </g>
  </symbol>

  <symbol id="wall_base" viewBox="0 0 100 100">
    <rect width="100" height="100" fill="#2a2a2a" />
              <path d="M 0 0 L 100 100 M 100 0 L 0 100" stroke="#4a4a4a" stroke-width="4" />
              <rect x="20" y="20" width="60" height="60" fill="none" stroke="#6a6a6a" stroke-width="2" />
              <circle cx="20" cy="20" r="3" fill="#888" />
              <circle cx="80" cy="20" r="3" fill="#888" />
              <circle cx="20" cy="80" r="3" fill="#888" />
              <circle cx="80" cy="80" r="3" fill="#888" />
  </symbol>
</svg>
