<svg xmlns="http://www.w3.org/2000/svg" viewBox="0 0 80 100">
  <defs>
    <linearGradient id="impSkin2" x1="0%" y1="0%" x2="0%" y2="100%">
      <stop offset="0%" stop-color="#FFB7C5"/>
      <stop offset="100%" stop-color="#FF6B35"/>
    </linearGradient>
    <linearGradient id="suitGrad" x1="0%" y1="0%" x2="0%" y2="100%">
      <stop offset="0%" stop-color="#2D2D44"/>
      <stop offset="100%" stop-color="#1A1A2E"/>
    </linearGradient>
  </defs>
  
  <ellipse cx="40" cy="95" rx="25" ry="5" fill="#1A1A2E" opacity="0.3"/>
  
  <rect x="22" y="70" width="14" height="26" rx="5" fill="url(#impSkin2)" stroke="#1A1A2E" stroke-width="3"/>
  <rect x="44" y="70" width="14" height="26" rx="5" fill="url(#impSkin2)" stroke="#1A1A2E" stroke-width="3"/>
  
  <rect x="22" y="42" width="36" height="32" rx="5" fill="url(#suitGrad)" stroke="#1A1A2E" stroke-width="3"/>
  
  <polygon points="40,42 35,58 45,58" fill="#FFFFFF" stroke="#1A1A2E" stroke-width="2"/>
  
  <line x1="40" y1="50" x2="40" y2="74" stroke="#1A1A2E" stroke-width="2"/>
  <circle cx="40" cy="52" r="2" fill="#FF0044"/>
  
  <path d="M 35 45 L 30 58 L 40 55 L 50 58 L 45 45 Z" fill="#FFFFFF" stroke="#1A1A2E" stroke-width="1"/>
  
  <ellipse cx="40" cy="30" rx="22" ry="20" fill="url(#impSkin2)" stroke="#1A1A2E" stroke-width="3"/>
  
  <path d="M 22 22 L 15 8 L 28 18 Z" fill="#FF0044" stroke="#1A1A2E" stroke-width="2"/>
  <path d="M 58 22 L 65 8 L 52 18 Z" fill="#FF0044" stroke="#1A1A2E" stroke-width="2"/>
  
  <ellipse cx="30" cy="28" rx="7" ry="8" fill="#FFFFFF" stroke="#1A1A2E" stroke-width="2"/>
  <ellipse cx="50" cy="28" rx="7" ry="8" fill="#FFFFFF" stroke="#1A1A2E" stroke-width="2"/>
  
  <circle cx="32" cy="30" r="4" fill="#1A1A2E"/>
  <circle cx="52" cy="30" r="4" fill="#1A1A2E"/>
  <circle cx="33" cy="29" r="1.5" fill="#FFFFFF"/>
  <circle cx="53" cy="29" r="1.5" fill="#FFFFFF"/>
  
  <path d="M 28 42 Q 40 48 52 42" stroke="#1A1A2E" stroke-width="2" fill="none"/>
  
  <circle cx="25" cy="35" r="3" fill="#FFB7C5" opacity="0.6"/>
  <circle cx="55" cy="35" r="3" fill="#FFB7C5" opacity="0.6"/>
  
  <rect x="28" y="15" width="24" height="12" rx="2" fill="#2D2D44" stroke="#1A1A2E" stroke-width="2"/>
  <rect x="32" y="17" width="16" height="8" fill="#1A1A2E"/>
  <line x1="36" y1="17" x2="36" y2="25" stroke="#2D2D44" stroke-width="1"/>
  <line x1="40" y1="17" x2="40" y2="25" stroke="#2D2D44" stroke-width="1"/>
  <line x1="44" y1="17" x2="44" y2="25" stroke="#2D2D44" stroke-width="1"/>
  
  <circle cx="35" cy="22" r="2" fill="#FFE135"/>
  <circle cx="50" cy="18" r="1.5" fill="#32FF00"/>
  
  <text x="40" y="90" text-anchor="middle" font-size="4" fill="#FF0044" font-weight="bold">Q4 DUE!</text>
</svg>
