<svg xmlns="http://www.w3.org/2000/svg" viewBox="0 0 140 160">
  <defs>
    <linearGradient id="clownBody" x1="0%" y1="0%" x2="0%" y2="100%">
      <stop offset="0%" stop-color="#FFFFFF"/>
      <stop offset="50%" stop-color="#FFB7C5"/>
      <stop offset="100%" stop-color="#FF0044"/>
    </linearGradient>
    <linearGradient id="clownSuit" x1="0%" y1="0%" x2="0%" y2="100%">
      <stop offset="0%" stop-color="#FF0044"/>
      <stop offset="50%" stop-color="#FFE135"/>
      <stop offset="100%" stop-color="#32FF00"/>
    </linearGradient>
    <filter id="clownGlow">
      <feGaussianBlur stdDeviation="3" result="blur"/>
      <feMerge><feMergeNode in="blur"/><feMergeNode in="SourceGraphic"/></feMerge>
    </filter>
  </defs>
  
  <ellipse cx="70" cy="155" rx="55" ry="5" fill="#1A1A2E" opacity="0.3"/>
  
  <rect x="25" y="120" width="25" height="38" rx="8" fill="#FF0044" stroke="#1A1A2E" stroke-width="3"/>
  <rect x="90" y="120" width="25" height="38" rx="8" fill="#32FF00" stroke="#1A1A2E" stroke-width="3"/>
  
  <ellipse cx="70" cy="100" rx="55" ry="45" fill="url(#clownSuit)" stroke="#1A1A2E" stroke-width="4"/>
  
  <circle cx="20" cy="85" r="10" fill="#00D4FF" stroke="#1A1A2E" stroke-width="2"/>
  <circle cx="120" cy="85" r="10" fill="#9B5DE5" stroke="#1A1A2E" stroke-width="2"/>
  
  <ellipse cx="70" cy="50" rx="45" ry="42" fill="url(#clownBody)" stroke="#1A1A2E" stroke-width="4" filter="url(#clownGlow)"/>
  
  <ellipse cx="45" cy="40" rx="4" ry="6" fill="#FFFFFF" stroke="#1A1A2E" stroke-width="1"/>
  <ellipse cx="95" cy="40" rx="4" ry="6" fill="#FFFFFF" stroke="#1A1A2E" stroke-width="1"/>
  
  <ellipse cx="50" cy="42" rx="10" ry="12" fill="#FFFFFF" stroke="#1A1A2E" stroke-width="2"/>
  <ellipse cx="90" cy="42" rx="10" ry="12" fill="#FFFFFF" stroke="#1A1A2E" stroke-width="2"/>
  
  <circle cx="52" cy="45" r="6" fill="#1A1A2E"/>
  <circle cx="92" cy="45" r="6" fill="#1A1A2E"/>
  <circle cx="54" cy="43" r="2" fill="#FFFFFF"/>
  <circle cx="94" cy="43" r="2" fill="#FFFFFF"/>
  
  <circle cx="45" cy="35" r="8" fill="#FF0044" stroke="#1A1A2E" stroke-width="2"/>
  <circle cx="95" cy="35" r="8" fill="#FF0044" stroke="#1A1A2E" stroke-width="2"/>
  
  <circle cx="70" cy="62" r="10" fill="#FF0044" stroke="#1A1A2E" stroke-width="2"/>
  
  <path d="M 55 80 Q 70 95 85 80" stroke="#1A1A2E" stroke-width="4" fill="none"/>
  <path d="M 60 82 L 62 90 L 64 82" fill="#FFFFFF"/>
  <path d="M 76 82 L 78 90 L 80 82" fill="#FFFFFF"/>
  
  <ellipse cx="25" cy="8" rx="20" ry="12" fill="#FFE135" stroke="#1A1A2E" stroke-width="3"/>
  <ellipse cx="115" cy="8" rx="20" ry="12" fill="#00D4FF" stroke="#1A1A2E" stroke-width="3"/>
  <ellipse cx="70" cy="-5" rx="22" ry="10" fill="#32FF00" stroke="#1A1A2E" stroke-width="3"/>
  
  <circle cx="70" cy="30" r="5" fill="#FF6B35"/>
  
  <circle cx="40" cy="60" r="6" fill="#FFB7C5" opacity="0.6"/>
  <circle cx="100" cy="60" r="6" fill="#FFB7C5" opacity="0.6"/>
  
  <circle cx="35" cy="32" r="3" fill="#FFE135"/>
  <circle cx="105" cy="34" r="3" fill="#32FF00"/>
  <circle cx="60" cy="18" r="2" fill="#00D4FF"/>
  <circle cx="80" cy="20" r="2" fill="#9B5DE5"/>
  
  <text x="70" y="115" text-anchor="middle" font-size="8" fill="#FFFFFF" font-weight="bold">HONK!</text>
</svg>
