<svg xmlns="http://www.w3.org/2000/svg" viewBox="0 0 80 100">
  <defs>
    <linearGradient id="impSkin" x1="0%" y1="0%" x2="0%" y2="100%">
      <stop offset="0%" stop-color="#FFB7C5"/>
      <stop offset="100%" stop-color="#FF6B35"/>
    </linearGradient>
    <filter id="glow">
      <feGaussianBlur stdDeviation="1" result="blur"/>
      <feMerge><feMergeNode in="blur"/><feMergeNode in="SourceGraphic"/></feMerge>
    </filter>
  </defs>
  
  <ellipse cx="40" cy="95" rx="25" ry="5" fill="#1A1A2E" opacity="0.3"/>
  
  <rect x="22" y="70" width="14" height="26" rx="5" fill="url(#impSkin)" stroke="#1A1A2E" stroke-width="3"/>
  <rect x="44" y="70" width="14" height="26" rx="5" fill="url(#impSkin)" stroke="#1A1A2E" stroke-width="3"/>
  
  <ellipse cx="40" cy="68" rx="28" ry="35" fill="url(#impSkin)" stroke="#1A1A2E" stroke-width="3"/>
  
  <path d="M 12 55 L 2 45 L 8 60 Z" fill="#FF0044" stroke="#1A1A2E" stroke-width="2"/>
  <path d="M 68 55 L 78 45 L 72 60 Z" fill="#FF0044" stroke="#1A1A2E" stroke-width="2"/>
  
  <ellipse cx="40" cy="35" rx="25" ry="22" fill="url(#impSkin)" stroke="#1A1A2E" stroke-width="3"/>
  
  <polygon points="25,18 15,0 35,15" fill="#00D4FF" stroke="#1A1A2E" stroke-width="2"/>
  <polygon points="55,18 65,0 45,15" fill="#00D4FF" stroke="#1A1A2E" stroke-width="2"/>
  <polygon points="40,5 30,-10 40,-5 50,-10" fill="#FFE135" stroke="#1A1A2E" stroke-width="2"/>
  
  <ellipse cx="30" cy="32" rx="8" ry="10" fill="#FFFFFF" stroke="#1A1A2E" stroke-width="2"/>
  <ellipse cx="50" cy="32" rx="8" ry="10" fill="#FFFFFF" stroke="#1A1A2E" stroke-width="2"/>
  
  <circle cx="32" cy="34" r="5" fill="#FF0044" filter="url(#glow)"/>
  <circle cx="52" cy="34" r="5" fill="#FF0044" filter="url(#glow)"/>
  <circle cx="33" cy="32" r="2" fill="#FFFFFF"/>
  <circle cx="53" cy="32" r="2" fill="#FFFFFF"/>
  
  <path d="M 28 48 Q 40 56 52 48" stroke="#1A1A2E" stroke-width="3" fill="none" stroke-linecap="round"/>
  <path d="M 32 50 L 34 54 L 36 50" fill="#FF0044"/>
  <path d="M 44 50 L 46 54 L 48 50" fill="#FF0044"/>
  
  <circle cx="25" cy="38" r="3" fill="#FFB7C5" opacity="0.6"/>
  <circle cx="55" cy="38" r="3" fill="#FFB7C5" opacity="0.6"/>
  
  <circle cx="35" cy="25" r="2" fill="#FFE135"/>
  <circle cx="50" cy="20" r="1.5" fill="#32FF00"/>
  <circle cx="28" cy="22" r="1" fill="#00D4FF"/>
</svg>
