<svg xmlns="http://www.w3.org/2000/svg" viewBox="0 0 32 32">
  <defs>
    <linearGradient id="legoRed" x1="0%" y1="0%" x2="0%" y2="100%">
      <stop offset="0%" stop-color="#FF6B6B"/>
      <stop offset="100%" stop-color="#CC0000"/>
    </linearGradient>
    <linearGradient id="legoBlue" x1="0%" y1="0%" x2="0%" y2="100%">
      <stop offset="0%" stop-color="#6BB3FF"/>
      <stop offset="100%" stop-color="#0066CC"/>
    </linearGradient>
    <linearGradient id="legoYellow" x1="0%" y1="0%" x2="0%" y2="100%">
      <stop offset="0%" stop-color="#FFE135"/>
      <stop offset="100%" stop-color="#CC9900"/>
    </linearGradient>
    <linearGradient id="legoGreen" x1="0%" y1="0%" x2="0%" y2="100%">
      <stop offset="0%" stop-color="#6BFF6B"/>
      <stop offset="100%" stop-color="#00CC00"/>
    </linearGradient>
  </defs>
  
  <g transform="translate(2, 4) rotate(-15)">
    <rect x="0" y="0" width="8" height="6" rx="1" fill="url(#legoRed)" stroke="#1A1A2E" stroke-width="1"/>
    <circle cx="2" cy="-1" r="1.5" fill="url(#legoRed)" stroke="#1A1A2E" stroke-width="0.5"/>
    <circle cx="6" cy="-1" r="1.5" fill="url(#legoRed)" stroke="#1A1A2E" stroke-width="0.5"/>
  </g>
  
  <g transform="translate(18, 2) rotate(20)">
    <rect x="0" y="0" width="10" height="5" rx="1" fill="url(#legoBlue)" stroke="#1A1A2E" stroke-width="1"/>
    <circle cx="2.5" cy="-1" r="1.5" fill="url(#legoBlue)" stroke="#1A1A2E" stroke-width="0.5"/>
    <circle cx="7.5" cy="-1" r="1.5" fill="url(#legoBlue)" stroke="#1A1A2E" stroke-width="0.5"/>
  </g>
  
  <g transform="translate(4, 16) rotate(30)">
    <rect x="0" y="0" width="6" height="8" rx="1" fill="url(#legoYellow)" stroke="#1A1A2E" stroke-width="1"/>
    <circle cx="3" cy="-1" r="1.5" fill="url(#legoYellow)" stroke="#1A1A2E" stroke-width="0.5"/>
  </g>
  
  <g transform="translate(20, 18) rotate(-25)">
    <rect x="0" y="0" width="8" height="6" rx="1" fill="url(#legoGreen)" stroke="#1A1A2E" stroke-width="1"/>
    <circle cx="2" cy="-1" r="1.5" fill="url(#legoGreen)" stroke="#1A1A2E" stroke-width="0.5"/>
    <circle cx="6" cy="-1" r="1.5" fill="url(#legoGreen)" stroke="#1A1A2E" stroke-width="0.5"/>
  </g>
  
  <g transform="translate(12, 10) rotate(10)">
    <rect x="0" y="0" width="5" height="5" rx="1" fill="url(#legoRed)" stroke="#1A1A2E" stroke-width="1"/>
    <circle cx="2.5" cy="-1" r="1.2" fill="url(#legoRed)" stroke="#1A1A2E" stroke-width="0.5"/>
  </g>
  
  <circle cx="28" cy="28" r="2" fill="#FF6B35" opacity="0.7"/>
  <circle cx="4" cy="28" r="1.5" fill="#00D4FF" opacity="0.7"/>
  <circle cx="16" cy="26" r="1" fill="#9B5DE5" opacity="0.7"/>
</svg>
