<svg xmlns="http://www.w3.org/2000/svg" viewBox="0 0 200 300">
  <defs>
    <linearGradient id="rocketBody" x1="0%" y1="0%" x2="0%" y2="100%">
      <stop offset="0%" stop-color="#9B5DE5"/>
      <stop offset="100%" stop-color="#FF6B35"/>
    </linearGradient>
    <linearGradient id="rocketTube" x1="0%" y1="0%" x2="0%" y2="100%">
      <stop offset="0%" stop-color="#32FF00"/>
      <stop offset="50%" stop-color="#00D4FF"/>
      <stop offset="100%" stop-color="#32FF00"/>
    </linearGradient>
  </defs>
  
  <!-- Handle grip - bottom, wider -->
  <rect x="50" y="230" width="100" height="60" rx="8" fill="#FF0044" stroke="#1A1A2E" stroke-width="4"/>
  <rect x="58" y="238" width="84" height="44" rx="6" fill="#CC0036" stroke="#1A1A2E" stroke-width="3"/>
  
  <!-- Main tube - trapezoid shape -->
  <polygon points="55,230 145,230 130,80 70,80" fill="url(#rocketTube)" stroke="#1A1A2E" stroke-width="4"/>
  
  <!-- Front sight -->
  <polygon points="80,80 120,80 110,60 90,60" fill="#FFB7C5" stroke="#1A1A2E" stroke-width="3"/>
  
  <!-- Muzzle opening - top, narrower -->
  <ellipse cx="100" cy="65" rx="25" ry="15" fill="#1A1A2E" stroke="#1A1A2E" stroke-width="3"/>
  <ellipse cx="100" cy="65" rx="18" ry="10" fill="#2A2A4E"/>
  
  <!-- Rocket visible inside -->
  <polygon points="90,85 110,85 105,75 95,75" fill="#FFE135" stroke="#1A1A2E" stroke-width="2"/>
  
  <!-- Opera singer decorative elements -->
  <circle cx="75" cy="180" r="12" fill="#FFB7C5" stroke="#1A1A2E" stroke-width="2"/>
  <circle cx="125" cy="180" r="12" fill="#FFB7C5" stroke="#1A1A2E" stroke-width="2"/>
  <path d="M 75,180 Q 100,200 125,180" fill="none" stroke="#1A1A2E" stroke-width="2"/>
  
  <!-- Fireworks preview effect -->
  <circle cx="100" cy="40" r="6" fill="#FFE135"/>
  <line x1="100" y1="40" x2="85" y2="25" stroke="#FF6B35" stroke-width="2"/>
  <line x1="100" y1="40" x2="115" y2="25" stroke="#FF6B35" stroke-width="2"/>
  <line x1="100" y1="40" x2="100" y2="20" stroke="#FF0044" stroke-width="2"/>
  <circle cx="85" cy="25" r="3" fill="#FFB7C5"/>
  <circle cx="115" cy="25" r="3" fill="#00D4FF"/>
  <circle cx="100" cy="20" r="3" fill="#32FF00"/>
  
  <!-- Dramatic text -->
  <text x="100" y="280" text-anchor="middle" font-family="Georgia, serif" font-size="14" 
        fill="#1A1A2E" font-weight="bold" font-style="italic">~LAUNCH~</text>
</svg>
